<?xml version="1.0" encoding="UTF-8"?>
<svg version="1.1" xmlns="http://www.w3.org/2000/svg" width="500" height="500">
<path d="M0 0 C165 0 330 0 500 0 C500 164.67 500 329.34 500 499 C335 499 170 499 0 499 C0 334.33 0 169.66 0 0 Z " fill="#141414" transform="translate(0,1)"/>
<path d="M0 0 C2.30350423 2.81324326 3.61632717 5.28144037 4.6875 8.75 C4.93886719 9.54921875 5.19023437 10.3484375 5.44921875 11.171875 C5.63097656 11.77515625 5.81273437 12.3784375 6 13 C6.3403125 12.39671875 6.680625 11.7934375 7.03125 11.171875 C10.45723612 5.52264257 13.49940108 1.83414211 20 0 C22.44681245 -0.27289591 24.52889532 -0.20592539 27 0 C25.5278666 5.8885336 22.31025988 11.92943904 17.0390625 15.2265625 C14.02416056 16.37014599 11.18721618 16.12258524 8 16 C8.495 16.99 8.495 16.99 9 18 C10.175625 17.938125 11.35125 17.87625 12.5625 17.8125 C17.03960301 17.78855827 20.0241888 19.0120944 24 21 C20.27538511 25.19019175 16.45871381 28.37792668 11 30 C7.12172006 30.09293003 3.49186381 29.74593191 0 28 C-0.66 29.98 -1.32 31.96 -2 34 C-1.195625 33.505 -0.39125 33.01 0.4375 32.5 C4.71993484 30.69686954 8.40339403 30.32583112 13 31 C13.99 31.66 14.98 32.32 16 33 C10.55652375 39.5901984 6.4239366 44.49887172 -2.375 45.6875 C-4.169375 45.8421875 -4.169375 45.8421875 -6 46 C-6.33 47.98 -6.66 49.96 -7 52 C-5.88625 51.071875 -5.88625 51.071875 -4.75 50.125 C0.10063812 46.37677963 2.77762124 45.76067774 9 46 C2.9027027 59.55675676 2.9027027 59.55675676 -3 63 C-6.375 63.3125 -6.375 63.3125 -9 63 C-8.34 65.97 -7.68 68.94 -7 72 C-6.154375 70.906875 -5.30875 69.81375 -4.4375 68.6875 C-1.29548305 64.98306952 1.43956964 63.55054632 6 62 C5.21650729 76.94039551 5.21650729 76.94039551 -0.5625 82.4375 C-3 84 -3 84 -5 84 C-4.34 86.97 -3.68 89.94 -3 93 C-2.34 93 -1.68 93 -1 93 C-1.0825 92.13375 -1.165 91.2675 -1.25 90.375 C-0.85079071 84.98567459 1.74885108 82.08053771 5.75 78.625 C6.4925 78.08875 7.235 77.5525 8 77 C9.96548513 82.65076974 10.83025516 88.02018606 10 94 C8.125 97.375 8.125 97.375 6 100 C5.30570621 101.3191582 4.62469505 102.64649406 4 104 C5.32 105.65 6.64 107.3 8 109 C8.01417969 108.443125 8.02835938 107.88625 8.04296875 107.3125 C8.43550953 101.03184746 10.28345924 97.03310133 14 92 C18.57033496 96.28868967 20.17817508 100.84219192 20.375 107 C20.24711716 111.64641002 19.13846781 114.90127003 17 119 C18.98 120.65 20.96 122.3 23 124 C22.96519531 123.13117188 22.93039063 122.26234375 22.89453125 121.3671875 C22.62565905 109.92091388 22.62565905 109.92091388 26 105 C26.66 105 27.32 105 28 105 C29.4375 106.79296875 29.4375 106.79296875 31 109.1875 C31.515625 109.96480469 32.03125 110.74210937 32.5625 111.54296875 C35.00074865 115.71051875 36.38324643 118.71814779 35.625 123.5625 C35.18905845 126.48736368 35 129.00208939 35 132 C37.31 132.99 39.62 133.98 42 135 C41.566875 134.1646875 41.566875 134.1646875 41.125 133.3125 C38.48015494 127.87587404 37.56123247 124.03305351 38 118 C38.66 117.67 39.32 117.34 40 117 C50.65306122 124.69387755 50.65306122 124.69387755 53 130 C53.30183409 133.69363077 53.23673154 137.30435764 53 141 C59.81508864 141.82810601 65.51870203 142.50413785 72 140 C72.01417969 139.443125 72.02835937 138.88625 72.04296875 138.3125 C72.42988006 132.12191904 73.91713185 127.72700997 78 123 C80.54174777 120.79244499 83.185203 118.84393649 86 117 C86.66 117.33 87.32 117.66 88 118 C88.34548714 124.33393082 87.29342747 129.10261508 85 135 C88.465 133.02 88.465 133.02 92 131 C91.67 130.13375 91.34 129.2675 91 128.375 C89.64644059 123.80673699 89.33280223 120.55050049 91.2421875 116.11328125 C91.78101563 115.18902344 92.31984375 114.26476562 92.875 113.3125 C93.40867187 112.38050781 93.94234375 111.44851562 94.4921875 110.48828125 C95.61738164 108.63141941 96.7956492 106.8065262 98 105 C98.66 105 99.32 105 100 105 C104.0449982 110.89895571 103.27748976 117.07303328 103 124 C104.98 122.35 106.96 120.7 109 119 C108.690625 118.236875 108.38125 117.47375 108.0625 116.6875 C104.46718813 107.59347586 106.43523306 101.80051839 110 93 C110.99 93 111.98 93 113 93 C116.54784971 98.37899794 117.70887831 102.58076669 118 109 C119.32 107.35 120.64 105.7 122 104 C120.83058699 101.46627181 119.64916834 99.56661971 117.875 97.375 C114.75712252 91.76282054 115.29770937 85.9563716 117 79.875 C117.33 78.92625 117.66 77.9775 118 77 C123.47200293 81.05788982 126.30076284 84.73776979 129 91 C129.99 88.69 130.98 86.38 132 84 C131.443125 83.938125 130.88625 83.87625 130.3125 83.8125 C126.4916567 82.47004154 124.01034379 79.6186846 121.890625 76.22265625 C120.74908514 73.37381336 120.57437978 70.80715665 120.375 67.75 C120.30023438 66.67234375 120.22546875 65.5946875 120.1484375 64.484375 C120.09945312 63.66453125 120.05046875 62.8446875 120 62 C125.76955257 64.43380629 129.39924824 66.82391935 133 72 C133 72.66 133 73.32 133 74 C133.66 74 134.32 74 135 74 C135 70.37 135 66.74 135 63 C134.154375 63.12375 133.30875 63.2475 132.4375 63.375 C127.5202613 62.83857396 125.08431418 60.79442372 122 57 C120.05280421 53.43340268 118.4628669 49.78862302 117 46 C123.41195352 45.33208818 126.89062492 47.19912341 132 51 C132.33 51.33 132.66 51.66 133 52 C133 49.69 133 47.38 133 45 C132.05640625 45.10441406 132.05640625 45.10441406 131.09375 45.2109375 C124.94884318 45.59962137 121.47618178 44.80759669 116.76171875 40.80078125 C114.09632691 38.07628982 112.05414168 35.20959637 110 32 C115.23516726 30.25494425 119.97166401 30.33331864 125 32.5 C125.99 32.995 126.98 33.49 128 34 C127.01 31.525 127.01 31.525 126 29 C125.29875 29.11859375 124.5975 29.2371875 123.875 29.359375 C117.09023479 30.2812181 112.61320295 30.08925644 107 26 C105.16685589 24.41723655 103.61488782 22.8167488 102 21 C107.86221379 18.12871161 112.53916383 16.84638794 119 19 C118.67 18.34 118.34 17.68 118 17 C116.04525678 16.45959764 116.04525678 16.45959764 113.75 16.125 C109.49420476 15.22939752 107.02683637 14.27907273 104 11 C99 3.2299169 99 3.2299169 99 0 C105.39051228 0.28981915 109.77519555 1.2094556 115 5 C117.3302385 8.00478122 118.80085153 10.40255459 120 14 C120.19335938 13.31292969 120.38671875 12.62585938 120.5859375 11.91796875 C120.84632813 11.01691406 121.10671875 10.11585938 121.375 9.1875 C121.63023437 8.29417969 121.88546875 7.40085938 122.1484375 6.48046875 C123 4 123 4 125 1 C125.66 1 126.32 1 127 1 C131.25129398 7.28584181 133.20299198 12.38105082 132 20 C131.20338022 22.53469929 130.23607605 24.63085423 129 27 C129.99 27.99 129.99 27.99 131 29 C131.23074219 28.46890625 131.46148437 27.9378125 131.69921875 27.390625 C133.81938557 22.79832691 135.67767276 19.88155149 140 17 C142.44743909 23.50039822 143.8207698 31.48515001 141.13671875 38.140625 C139.93305116 39.9439379 138.53199189 41.46800811 137 43 C137.28730055 45.33944736 137.61936779 47.6739143 138 50 C138.53625 49.0925 139.0725 48.185 139.625 47.25 C141.85745745 43.8853677 144.47284273 41.99361063 148 40 C148.66 40 149.32 40 150 40 C150.47848316 47.23041223 150.38121687 52.99349299 146 59 C141.9 63 141.9 63 138 63 C138 66.3 138 69.6 138 73 C139.36125 71.824375 139.36125 71.824375 140.75 70.625 C144.94798981 67.15453067 147.48886107 65.90045562 153 66 C149.03564063 80.41161229 149.03564063 80.41161229 143 84 C140.94140625 84.55078125 140.94140625 84.55078125 138.8125 84.9375 C135.0524146 85.55216646 135.0524146 85.55216646 133.82421875 87.66796875 C132.8728338 89.82634062 132.8728338 89.82634062 132 93 C133.4540625 92.2575 133.4540625 92.2575 134.9375 91.5 C139.28728381 89.60142633 143.33030204 89.71410012 148 90 C146.32911984 95.94090725 141.87014358 101.26280783 136.625 104.4375 C134 105 134 105 131.83203125 105.1484375 C126.55993713 105.39456486 126.55993713 105.39456486 122.4375 108.5625 C121.963125 109.366875 121.48875 110.17125 121 111 C121.99 110.67 122.98 110.34 124 110 C129.03943886 109.59420249 133.41808226 109.63513923 138 112 C135.76766385 117.76580538 130.34598508 120.42940744 125 123 C120.83361229 123.79116704 117.31075955 123.35747988 113.25 122.25 C110.74498572 121.72309246 110.74498572 121.72309246 108.1875 123.9375 C107.465625 124.618125 106.74375 125.29875 106 126 C106.71285156 126.02578125 107.42570313 126.0515625 108.16015625 126.078125 C114.56916582 126.45766258 118.7001799 127.34901282 124 131 C117.99216494 136.42643167 111.24339068 139.72692103 103.06640625 139.4140625 C99.89507688 138.77859764 97.64016999 136.8001159 95 135 C92.23690643 135.55474573 92.23690643 135.55474573 90 137 C89.34 137.33 88.68 137.66 88 138 C88.51949219 138.21914063 89.03898437 138.43828125 89.57421875 138.6640625 C94.75940232 141.02183544 97.65077505 143.39481569 101 148 C86.4137931 151.86206897 86.4137931 151.86206897 79.5625 148.125 C77 146 77 146 75 144 C73.68 144.33 72.36 144.66 71 145 C75.95 147.475 75.95 147.475 81 150 C81 150.99 81 151.98 81 153 C78.45258911 151.98562557 75.91210108 150.96281705 73.38671875 149.89453125 C67.60976298 147.57873277 63.04109966 145.95177955 57 148 C54.30420361 149.21848404 51.69757085 150.52284441 49.1015625 151.94140625 C47 153 47 153 45 153 C46.49835228 148.33845958 49.88463591 147.13389249 54 145 C49.24891067 145 48.49528898 146.04244779 45 149 C38.33927142 151.22024286 31.5170415 150.26679704 25 148 C29.05912627 142.38795043 32.3364387 139.9531128 39 138 C36.23394361 136.28322447 36.23394361 136.28322447 33 135 C30.81701858 135.59145334 30.81701858 135.59145334 29 137 C24.36752137 139.65135479 20.2275443 139.83697453 15 139 C3.83628319 134.67256637 3.83628319 134.67256637 2 131 C7.90244471 126.93387143 12.89945397 126.25680094 20 126 C17.81099414 123.8312811 17.81099414 123.8312811 15 122 C12.64184541 122.20318682 12.64184541 122.20318682 10 123 C3.30422584 123.98082629 -0.54545555 122.59761476 -5.95703125 118.60546875 C-6.63121094 118.07566406 -7.30539063 117.54585938 -8 117 C-8.74636719 116.48050781 -9.49273437 115.96101563 -10.26171875 115.42578125 C-11.12216797 114.72001953 -11.12216797 114.72001953 -12 114 C-12 113.34 -12 112.68 -12 112 C-7.33826114 109.59394123 -3.09754035 109.81973335 2 110 C2.66 110 3.32 110 4 110 C3.505 109.38125 3.01 108.7625 2.5 108.125 C1 106 1 106 1 104 C0.01 104.495 0.01 104.495 -1 105 C-5.44906472 105.37075539 -8.0083811 105.46545377 -12.0625 103.5625 C-15.96289451 100.16002819 -19.16989951 96.3372546 -22 92 C-22 91.34 -22 90.68 -22 90 C-15.80112515 89.62047705 -11.5522888 90.1647887 -6 93 C-6.66 90.69 -7.32 88.38 -8 86 C-8.58007812 85.92523438 -9.16015625 85.85046875 -9.7578125 85.7734375 C-15.82439159 84.75233013 -19.39617901 83.05921023 -23 78 C-25.25735106 74.11804023 -26.41219207 70.53411279 -26 66 C-20.07639384 66.56415297 -16.18653966 68.81346034 -12 73 C-12.01324772 69.9000335 -12.18874605 67.00059954 -13 64 C-15.79514598 61.60869555 -15.79514598 61.60869555 -19 60 C-23.01257971 55.55750103 -24.26766453 51.10807793 -24.125 45.1875 C-24.10695312 44.21167969 -24.08890625 43.23585937 -24.0703125 42.23046875 C-24.04710937 41.49441406 -24.02390625 40.75835937 -24 40 C-19.64334803 40.84869844 -17.26627901 43.01774525 -14 46 C-13.34 46.99 -12.68 47.98 -12 49 C-11.01 47.02 -10.02 45.04 -9 43 C-9.598125 42.773125 -10.19625 42.54625 -10.8125 42.3125 C-13.83535493 40.49878704 -14.65344741 39.29905386 -16 36 C-16.63708466 29.65855727 -16.13017318 23.99111208 -14 18 C-9.77489327 19.50896669 -8.28177151 22.27310654 -6 26 C-5.34 26.99 -4.68 27.98 -4 29 C-3.67 28.01 -3.34 27.02 -3 26 C-3.474375 25.154375 -3.94875 24.30875 -4.4375 23.4375 C-6.54558209 18.7997194 -6.94278437 15.01356651 -6 10 C-4.31885612 6.42330548 -2.29597094 3.21162602 0 0 Z " fill="#ECECEC" transform="translate(186,130)"/>
<path d="M0 0 C0.66467285 0.31638428 1.3293457 0.63276855 2.01416016 0.95874023 C7.75885141 3.64692043 13.19623921 5.06088585 19.4375 6.125 C21.20826932 6.43307058 22.97788833 6.74785153 24.74609375 7.0703125 C25.51622803 7.20195801 26.2863623 7.33360352 27.07983398 7.46923828 C29 8 29 8 31 10 C33.82346636 30.25777797 29.08078555 51.5765456 16.76171875 67.98046875 C12.27639008 73.10102531 7.29518265 77.72530223 2 82 C1.32324219 82.54914063 0.64648438 83.09828125 -0.05078125 83.6640625 C-2.88117126 85.603929 -4.63257287 85.4714398 -8 85 C-10.33471612 83.77958021 -11.98710362 82.64976808 -14 81 C-14.75410156 80.401875 -15.50820312 79.80375 -16.28515625 79.1875 C-23.26639934 73.31764492 -28.22777862 66.66964151 -33 59 C-33.5053125 58.22398437 -34.010625 57.44796875 -34.53125 56.6484375 C-42.68341524 42.58098163 -42.60264706 24.73578428 -42 9 C-41.37134033 8.87995605 -40.74268066 8.75991211 -40.0949707 8.63623047 C-23.7552477 5.55672033 -23.7552477 5.55672033 -8.62109375 -1.05859375 C-4.98099721 -2.36599057 -3.52149127 -1.54091921 0 0 Z " fill="#E4E4E4" transform="translate(255,157)"/>
<path d="M0 0 C0.66467285 0.31638428 1.3293457 0.63276855 2.01416016 0.95874023 C7.75885141 3.64692043 13.19623921 5.06088585 19.4375 6.125 C21.20826932 6.43307058 22.97788833 6.74785153 24.74609375 7.0703125 C25.51622803 7.20195801 26.2863623 7.33360352 27.07983398 7.46923828 C29 8 29 8 31 10 C33.82346636 30.25777797 29.08078555 51.5765456 16.76171875 67.98046875 C12.27639008 73.10102531 7.29518265 77.72530223 2 82 C1.32324219 82.54914063 0.64648438 83.09828125 -0.05078125 83.6640625 C-2.88117126 85.603929 -4.63257287 85.4714398 -8 85 C-10.33471612 83.77958021 -11.98710362 82.64976808 -14 81 C-14.75410156 80.401875 -15.50820312 79.80375 -16.28515625 79.1875 C-23.26639934 73.31764492 -28.22777862 66.66964151 -33 59 C-33.5053125 58.22398437 -34.010625 57.44796875 -34.53125 56.6484375 C-42.68341524 42.58098163 -42.60264706 24.73578428 -42 9 C-41.37134033 8.87995605 -40.74268066 8.75991211 -40.0949707 8.63623047 C-23.7552477 5.55672033 -23.7552477 5.55672033 -8.62109375 -1.05859375 C-4.98099721 -2.36599057 -3.52149127 -1.54091921 0 0 Z M-12.1875 6.125 C-20.19077023 9.70092925 -28.54226792 11.79159218 -37 14 C-37.72856151 35.89660715 -37.72856151 35.89660715 -30 56 C-29.34773437 57.01835937 -28.69546875 58.03671875 -28.0234375 59.0859375 C-19.93058134 71.6539644 -19.93058134 71.6539644 -8 80 C0.12184303 79.50254907 4.3732477 75.54006564 10 70 C13.29716926 66.22052558 16.20895069 62.16331522 19 58 C19.53367187 57.21367187 20.06734375 56.42734375 20.6171875 55.6171875 C22.3563448 52.32556211 23.26888971 48.97245745 24.125 45.375 C24.29676758 44.66496826 24.46853516 43.95493652 24.64550781 43.22338867 C26.99246353 33.15768297 27.14747282 23.30671141 27 13 C25.82824219 12.75765625 24.65648437 12.5153125 23.44921875 12.265625 C15.51133023 10.58572464 7.81012851 8.8829988 0.26171875 5.83203125 C-4.76613442 3.98240651 -7.29949138 3.76916323 -12.1875 6.125 Z " fill="#858585" transform="translate(255,157)"/>
<path d="M0 0 C4.92127034 -0.16682272 8.50343896 -0.24828052 13 2 C14.125 9.625 14.125 9.625 13 13 C13 16.63 13 20.26 13 24 C4.09 24 -4.82 24 -14 24 C-14 19.38 -14 14.76 -14 10 C-10.37 10 -6.74 10 -3 10 C-2.67 7.36 -2.34 4.72 -2 2 C-1.34 2 -0.68 2 0 2 C0 1.34 0 0.68 0 0 Z " fill="#767676" transform="translate(244,178)"/>
<path d="M0 0 C2.06183633 -0.08150744 4.12461349 -0.1394194 6.1875 -0.1875 C7.33605469 -0.22230469 8.48460937 -0.25710938 9.66796875 -0.29296875 C13.57912447 0.0509195 16.2059851 1.2059851 19 4 C19.43554477 7.83279396 19.2705555 9.570843 17.1875 12.875 C15 15 15 15 12 15 C13.06541016 16.58941406 13.06541016 16.58941406 14.15234375 18.2109375 C15.08078995 19.59891768 16.00917204 20.98694074 16.9375 22.375 C17.40607422 23.07367188 17.87464844 23.77234375 18.35742188 24.4921875 C18.80537109 25.1625 19.25332031 25.8328125 19.71484375 26.5234375 C20.12855225 27.14138184 20.54226074 27.75932617 20.96850586 28.39599609 C22 30 22 30 23 32 C20.7265625 32.26171875 20.7265625 32.26171875 18 32 C16.0859375 30.20703125 16.0859375 30.20703125 14.375 27.8125 C13.78332031 26.99265625 13.19164062 26.1728125 12.58203125 25.328125 C8 18.58518519 8 18.58518519 8 16 C7.34 16 6.68 16 6 16 C6.33 21.28 6.66 26.56 7 32 C4.69 32 2.38 32 0 32 C0.33 31.34 0.66 30.68 1 30 C1.09738781 27.91847333 1.13076841 25.83380266 1.1328125 23.75 C1.13410156 22.5021875 1.13539063 21.254375 1.13671875 19.96875 C1.13285156 18.6590625 1.12898437 17.349375 1.125 16 C1.12886719 14.6903125 1.13273438 13.380625 1.13671875 12.03125 C1.13542969 10.7834375 1.13414062 9.535625 1.1328125 8.25 C1.13168457 7.10015625 1.13055664 5.9503125 1.12939453 4.765625 C1.18894568 2.04045525 1.18894568 2.04045525 0 0 Z " fill="#E2E2E2" transform="translate(234,310)"/>
<path d="M0 0 C12 0 12 0 17 3 C18.44430855 5.88861709 18.37688506 7.79647701 18 11 C15.9375 13.8125 15.9375 13.8125 13 16 C10.69 16.33 8.38 16.66 6 17 C6.33 21.95 6.66 26.9 7 32 C4.69 32 2.38 32 0 32 C0 21.44 0 10.88 0 0 Z " fill="#C5C5C5" transform="translate(189,310)"/>
<path d="M0 0 C1.98 0 3.96 0 6 0 C5.67 4.62 5.34 9.24 5 14 C9.95 14 14.9 14 20 14 C19.855625 12.06125 19.71125 10.1225 19.5625 8.125 C19.48128906 7.03445313 19.40007812 5.94390625 19.31640625 4.8203125 C19.16998297 2.05271029 19.16998297 2.05271029 18 0 C20.31 0 22.62 0 25 0 C25 10.56 25 21.12 25 32 C22.69 32 20.38 32 18 32 C18.33 31.34 18.66 30.68 19 30 C19.23029956 27.62876754 19.41119942 25.25258057 19.5625 22.875 C19.706875 20.60625 19.85125 18.3375 20 16 C15.05 16 10.1 16 5 16 C5.144375 18.26875 5.28875 20.5375 5.4375 22.875 C5.51871094 24.15117187 5.59992188 25.42734375 5.68359375 26.7421875 C5.79206027 29.88300152 5.79206027 29.88300152 7 32 C4.36 32 1.72 32 -1 32 C-0.67 31.34 -0.34 30.68 0 30 C0.08573394 27.74879258 0.10712188 25.49500697 0.09765625 23.2421875 C0.0962413 22.57913605 0.09482635 21.91608459 0.09336853 21.23294067 C0.08776754 19.11358137 0.075215 16.99432741 0.0625 14.875 C0.05748512 13.43880361 0.05292219 12.00260556 0.04882812 10.56640625 C0.03779782 7.04423655 0.02053259 3.52212855 0 0 Z " fill="#E0E0E0" transform="translate(286,310)"/>
<path d="M0 0 C3.10973605 2.57829693 4.09405771 5.3744149 5.4453125 9.12890625 C6.10080078 10.92811523 6.10080078 10.92811523 6.76953125 12.76367188 C7.22165278 14.02984133 7.67347234 15.29611865 8.125 16.5625 C8.58383933 17.83297009 9.04346648 19.10315594 9.50390625 20.37304688 C10.34557448 22.69450271 11.18336054 25.01737212 12.01611328 27.34204102 C12.91812371 29.92700162 12.91812371 29.92700162 14 32 C11.69 32 9.38 32 7 32 C6.87625 30.9275 6.7525 29.855 6.625 28.75 C6.09251493 25.55508956 5.48157272 23.76560241 4 21 C4 20.01 4 19.02 4 18 C1.36 18 -1.28 18 -4 18 C-6.60026749 24.80568135 -6.60026749 24.80568135 -7 32 C-8.98 32 -10.96 32 -13 32 C-4.48087538 10.5989937 -4.48087538 10.5989937 0 0 Z " fill="#E2E2E2" transform="translate(216,310)"/>
<path d="M0 0 C7.26 0 14.52 0 22 0 C22 1.65 22 3.3 22 5 C21.34 5 20.68 5 20 5 C19.67 4.34 19.34 3.68 19 3 C16.03 2.505 16.03 2.505 13 2 C13.33 11.9 13.66 21.8 14 32 C11.69 32 9.38 32 7 32 C7.33 22.1 7.66 12.2 8 2 C5.36 2.66 2.72 3.32 0 4 C0 2.68 0 1.36 0 0 Z " fill="#D6D6D6" transform="translate(260,310)"/>
<path d="M0 0 C6.75 0.75 6.75 0.75 9 3 C9.125 5.875 9.125 5.875 9 9 C9 10.32 9 11.64 9 13 C8.01 13 7.02 13 6 13 C6.71027344 14.05960937 7.42054688 15.11921875 8.15234375 16.2109375 C9.08078995 17.59891768 10.00917204 18.98694074 10.9375 20.375 C11.40607422 21.07367188 11.87464844 21.77234375 12.35742188 22.4921875 C12.80537109 23.1625 13.25332031 23.8328125 13.71484375 24.5234375 C14.12855225 25.14138184 14.54226074 25.75932617 14.96850586 26.39599609 C16 28 16 28 17 30 C14.7265625 30.26171875 14.7265625 30.26171875 12 30 C10.0859375 28.20703125 10.0859375 28.20703125 8.375 25.8125 C7.78332031 24.99007813 7.19164062 24.16765625 6.58203125 23.3203125 C6.05996094 22.55460937 5.53789062 21.78890625 5 21 C4.360625 20.071875 3.72125 19.14375 3.0625 18.1875 C2 16 2 16 2 12 C1.34 12 0.68 12 0 12 C0 8.04 0 4.08 0 0 Z " fill="#DEDEDE" transform="translate(240,312)"/>
<path d="M0 0 C1.98 0 3.96 0 6 0 C5.67 4.62 5.34 9.24 5 14 C9.95 14 14.9 14 20 14 C20 14.33 20 14.66 20 15 C15.05 15 10.1 15 5 15 C5.144375 17.43375 5.28875 19.8675 5.4375 22.375 C5.50215454 23.52234619 5.50215454 23.52234619 5.56811523 24.69287109 C5.76209704 28.47181316 5.76209704 28.47181316 7 32 C4.36 32 1.72 32 -1 32 C-0.67 31.34 -0.34 30.68 0 30 C0.08573394 27.74879258 0.10712188 25.49500697 0.09765625 23.2421875 C0.0962413 22.57913605 0.09482635 21.91608459 0.09336853 21.23294067 C0.08776754 19.11358137 0.075215 16.99432741 0.0625 14.875 C0.05748512 13.43880361 0.05292219 12.00260556 0.04882812 10.56640625 C0.03779782 7.04423655 0.02053259 3.52212855 0 0 Z " fill="#E9E9E9" transform="translate(286,310)"/>
<path d="M0 0 C-0.33 0.99 -0.66 1.98 -1 3 C2.3 4.65 5.6 6.3 9 8 C9 8.99 9 9.98 9 11 C6.45258911 9.98562557 3.91210108 8.96281705 1.38671875 7.89453125 C-4.39023702 5.57873277 -8.95890034 3.95177955 -15 6 C-17.69579639 7.21848404 -20.30242915 8.52284441 -22.8984375 9.94140625 C-25 11 -25 11 -27 11 C-25.55613418 7.28720216 -23.87763608 6.0513557 -20.375 4.25 C-19.55773437 3.82203125 -18.74046875 3.3940625 -17.8984375 2.953125 C-16.95871094 2.48132813 -16.95871094 2.48132813 -16 2 C-16 1.34 -16 0.68 -16 0 C-15.11248047 0.01740234 -15.11248047 0.01740234 -14.20703125 0.03515625 C-9.91593556 0.08415734 -3.63248005 -1.81624003 0 0 Z " fill="#F3F3F3" transform="translate(258,272)"/>
<path d="M0 0 C8.58 0 17.16 0 26 0 C25.67 0.99 25.34 1.98 25 3 C20.545 3.495 20.545 3.495 16 4 C16.66 5.32 17.32 6.64 18 8 C14.7 8 11.4 8 8 8 C8 7.34 8 6.68 8 6 C8.66 6 9.32 6 10 6 C10 5.01 10 4.02 10 3 C6.7 3 3.4 3 0 3 C0 2.01 0 1.02 0 0 Z " fill="#6D6D6D" transform="translate(231,203)"/>
<path d="M0 0 C2.92300138 2.47783163 3.97340327 4.9851711 5.25 8.5625 C5.60578125 9.53316406 5.9615625 10.50382812 6.328125 11.50390625 C7 14 7 14 6 16 C2.7 16 -0.6 16 -4 16 C-5.17744094 11.29023622 -4.4890573 10.07300662 -2.5625 5.75 C-2.08941406 4.67234375 -1.61632812 3.5946875 -1.12890625 2.484375 C-0.75636719 1.66453125 -0.38382813 0.8446875 0 0 Z " fill="#E2E2E2" transform="translate(216,310)"/>
<path d="M0 0 C2.97 0 5.94 0 9 0 C7.68 0.33 6.36 0.66 5 1 C5 5.62 5 10.24 5 15 C6.65 15 8.3 15 10 15 C10 15.33 10 15.66 10 16 C8.35 16 6.7 16 5 16 C5 20.95 5 25.9 5 31 C4.01 31 3.02 31 2 31 C1.97494385 30.13197754 1.9498877 29.26395508 1.92407227 28.36962891 C1.82900516 25.15286837 1.72976797 21.93627151 1.62768555 18.71972656 C1.58434154 17.3268741 1.54266604 15.93396869 1.50268555 14.54101562 C1.44497068 12.54023349 1.38078131 10.53964141 1.31640625 8.5390625 C1.27974854 7.33459473 1.24309082 6.13012695 1.20532227 4.88916016 C1.18947013 2.06003633 1.18947013 2.06003633 0 0 Z " fill="#FAFAFA" transform="translate(189,310)"/>
<path d="M0 0 C6 1 6 1 7.9375 2.75 C9 5 9 5 8.875 7.5625 C7.92237446 10.21624257 7.33059802 11.41852277 5 13 C3.35 13 1.7 13 0 13 C0 8.71 0 4.42 0 0 Z " fill="#282828" transform="translate(194,312)"/>
<path d="M0 0 C6.75 0.75 6.75 0.75 9 3 C9.375 5.9375 9.375 5.9375 9 9 C7.3125 10.875 7.3125 10.875 5 12 C3.35 12 1.7 12 0 12 C0 8.04 0 4.08 0 0 Z " fill="#202020" transform="translate(240,312)"/>
<path d="M0 0 C2.31 0 4.62 0 7 0 C6.34 1.32 5.68 2.64 5 4 C4.01 4 3.02 4 2 4 C2.33 4.99 2.66 5.98 3 7 C3.556875 6.34 4.11375 5.68 4.6875 5 C7 3 7 3 9.75 2.75 C10.4925 2.8325 11.235 2.915 12 3 C12 3.99 12 4.98 12 6 C10.35 6 8.7 6 7 6 C7 6.66 7 7.32 7 8 C6.01 8.33 5.02 8.66 4 9 C10.93 9.33 17.86 9.66 25 10 C25 10.33 25 10.66 25 11 C24.31373535 11.02505615 23.6274707 11.0501123 22.92041016 11.07592773 C19.82174183 11.19171427 16.72339077 11.31451885 13.625 11.4375 C12.54476562 11.47681641 11.46453125 11.51613281 10.3515625 11.55664062 C9.3203125 11.59853516 8.2890625 11.64042969 7.2265625 11.68359375 C6.27346191 11.72025146 5.32036133 11.75690918 4.33837891 11.79467773 C1.97867651 11.85763465 1.97867651 11.85763465 0 13 C0 8.71 0 4.42 0 0 Z " fill="#2C2C2C" transform="translate(231,188)"/>
<path d="M0 0 C2.31 0 4.62 0 7 0 C7 5.94 7 11.88 7 18 C4.69 18 2.38 18 0 18 C-0.125 14.625 -0.125 14.625 0 11 C0.66 10.34 1.32 9.68 2 9 C3.32 9 4.64 9 6 9 C6 8.34 6 7.68 6 7 C4.02 7 2.04 7 0 7 C0.66 6.01 1.32 5.02 2 4 C3.32 4 4.64 4 6 4 C6 3.34 6 2.68 6 2 C4.02 2 2.04 2 0 2 C0 1.34 0 0.68 0 0 Z " fill="#4C4C4C" transform="translate(261,193)"/>
<path d="M0 0 C2.64 0 5.28 0 8 0 C8 0.99 8 1.98 8 3 C5.69 3 3.38 3 1 3 C1 3.66 1 4.32 1 5 C2.98 5 4.96 5 7 5 C7 7.97 7 10.94 7 14 C5.02 14 3.04 14 1 14 C1 16.31 1 18.62 1 21 C0.67 21 0.34 21 0 21 C0 14.07 0 7.14 0 0 Z " fill="#898989" transform="translate(260,190)"/>
<path d="M0 0 C3.0625 0.1875 3.0625 0.1875 5.0625 2.1875 C5.3125 4.6875 5.3125 4.6875 5.0625 7.1875 C3.0625 9.1875 3.0625 9.1875 0.0625 9.5 C-0.9275 9.396875 -1.9175 9.29375 -2.9375 9.1875 C-4.9375 6.1875 -4.9375 6.1875 -4.625 3.5625 C-3.63731654 0.1505026 -3.65603948 0.23336422 0 0 Z " fill="#BABABA" transform="translate(260.9375,362.8125)"/>
<path d="M0 0 C0.66 0.33 1.32 0.66 2 1 C2 1.99 2 2.98 2 4 C2.66 4 3.32 4 4 4 C4 4.66 4 5.32 4 6 C7.3 6 10.6 6 14 6 C14 6.66 14 7.32 14 8 C8.63904667 9.12862175 3.44693314 9.09688221 -2 9 C-0.68 8.67 0.64 8.34 2 8 C2 7.01 2 6.02 2 5 C-1.77545388 6.09068668 -4.47043472 6.9083091 -7 10 C-7.66 9.67 -8.32 9.34 -9 9 C-8.67 7.68 -8.34 6.36 -8 5 C-7.360625 4.87625 -6.72125 4.7525 -6.0625 4.625 C-5.381875 4.41875 -4.70125 4.2125 -4 4 C-3.67 3.34 -3.34 2.68 -3 2 C-2.01 2 -1.02 2 0 2 C0 1.34 0 0.68 0 0 Z " fill="#AEAEAE" transform="translate(241,186)"/>
<path d="M0 0 C0.99 0.33 1.98 0.66 3 1 C3.8125 2.8125 3.8125 2.8125 4 5 C3.0625 7.25 3.0625 7.25 2 9 C0.35 8.67 -1.3 8.34 -3 8 C-2.67 7.01 -2.34 6.02 -2 5 C-3.32 6.32 -4.64 7.64 -6 9 C-6.66 8.67 -7.32 8.34 -8 8 C-7.484375 7.5875 -6.96875 7.175 -6.4375 6.75 C-4.75264314 5.10265318 -4.75264314 5.10265318 -5.125 2.875 C-5.41375 2.25625 -5.7025 1.6375 -6 1 C-6.99 0.67 -7.98 0.34 -9 0 C-5.90998791 -1.54500605 -3.32822635 -0.58389936 0 0 Z " fill="#434343" transform="translate(254,179)"/>
<path d="M0 0 C6.875 0.875 6.875 0.875 8 2 C8.25 4.4375 8.25 4.4375 8 7 C4.77208445 9.1519437 3.71599191 9.20086443 0 9 C0 6.03 0 3.06 0 0 Z " fill="#C3C3C3" transform="translate(204,363)"/>
<path d="M0 0 C0.99 0.66 1.98 1.32 3 2 C2.46068625 7.28527476 1.46710903 11.33990517 -1 16 C-3.0625 17.375 -3.0625 17.375 -5 18 C-5.66 18.33 -6.32 18.66 -7 19 C-5.88856411 16.17866274 -4.73189557 13.39676502 -3.5 10.625 C-2.03626677 7.0876447 -0.97940307 3.6915962 0 0 Z " fill="#949494" transform="translate(279,199)"/>
<path d="M0 0 C0.99 0.33 1.98 0.66 3 1 C3.3721042 2.32303717 3.70630173 3.65737935 4 5 C4.66 5.33 5.32 5.66 6 6 C5.01 7.485 5.01 7.485 4 9 C5.32 7.68 6.64 6.36 8 5 C7.67 4.34 7.34 3.68 7 3 C7.99 3 8.98 3 10 3 C9.52797514 7.24822374 7.03344482 9.19989709 4 12 C3.01 11.67 2.02 11.34 1 11 C1.33 9.68 1.66 8.36 2 7 C1.34 6.67 0.68 6.34 0 6 C-0.66 6.66 -1.32 7.32 -2 8 C-3 5 -3 5 -2 2 C-1.34 2 -0.68 2 0 2 C0 1.34 0 0.68 0 0 Z " fill="#A7A7A7" transform="translate(244,178)"/>
<path d="M0 0 C0.33 0.99 0.66 1.98 1 3 C0.67 3.66 0.34 4.32 0 5 C-0.2275015 6.87056791 -0.40962811 8.74685958 -0.5625 10.625 C-0.68818359 12.12933594 -0.68818359 12.12933594 -0.81640625 13.6640625 C-0.87699219 14.43492187 -0.93757812 15.20578125 -1 16 C-4.08089673 13.22719294 -5.68775452 10.93673644 -7 7 C-2.25 1.125 -2.25 1.125 0 0 Z " fill="#262626" transform="translate(196,225)"/>
<path d="M0 0 C0.66 0.33 1.32 0.66 2 1 C1.67 1.33 1.34 1.66 1 2 C1.66 2.66 2.32 3.32 3 4 C2.12988281 4.14695313 2.12988281 4.14695313 1.2421875 4.296875 C-4.12394527 5.32405553 -7.64789217 6.70938188 -12 10 C-12.99 10.495 -12.99 10.495 -14 11 C-13.125 4.125 -13.125 4.125 -12 3 C-9.1668006 2.42618746 -6.32080238 1.97044163 -3.46875 1.5 C-1.06584023 1.25006493 -1.06584023 1.25006493 0 0 Z " fill="#282828" transform="translate(192,172)"/>
<path d="M0 0 C2 4 2 4 1.5390625 6.18359375 C1.23742187 6.92738281 0.93578125 7.67117188 0.625 8.4375 C-0.62799317 11.78249497 -1.35042525 14.37893907 -1 18 C-2.98 18 -4.96 18 -7 18 C-4.69 12.06 -2.38 6.12 0 0 Z " fill="#BCBCBC" transform="translate(210,324)"/>
<path d="M0 0 C0.33 0.99 0.66 1.98 1 3 C1.99 3.33 2.98 3.66 4 4 C3.67 5.32 3.34 6.64 3 8 C4.65 7.34 6.3 6.68 8 6 C8 6.99 8 7.98 8 9 C8.99 9 9.98 9 11 9 C11 9.66 11 10.32 11 11 C5.375 12.125 5.375 12.125 2 11 C2 10.34 2 9.68 2 9 C1.34 9 0.68 9 0 9 C-1.10844919 5.67465243 -0.84454356 3.37817425 0 0 Z " fill="#2E2E2E" transform="translate(243,181)"/>
<path d="M0 0 C5.61 0.66 11.22 1.32 17 2 C17 2.66 17 3.32 17 4 C10.07 4 3.14 4 -4 4 C-3.67 3.34 -3.34 2.68 -3 2 C-2.01 2 -1.02 2 0 2 C0 1.34 0 0.68 0 0 Z " fill="#8C8C8C" transform="translate(238,194)"/>
<path d="M0 0 C0.99 0.33 1.98 0.66 3 1 C2.360625 1.86625 1.72125 2.7325 1.0625 3.625 C-0.97548296 6.9598812 -1.63433093 9.16047478 -2 13 C-2.66 13 -3.32 13 -4 13 C-5.49821059 9.62902617 -6 7.79557881 -6 4 C-3.1875 1.6875 -3.1875 1.6875 0 0 Z " fill="#262626" transform="translate(187,210)"/>
<path d="M0 0 C1.65 0 3.3 0 5 0 C6.0013988 3.00419641 6.51421457 5.87709365 7 9 C5.68 8.34 4.36 7.68 3 7 C2.67 7.66 2.34 8.32 2 9 C1.34 9 0.68 9 0 9 C0 6.03 0 3.06 0 0 Z " fill="#B3B3B3" transform="translate(290,363)"/>
<path d="M0 0 C2.64 0 5.28 0 8 0 C8.33 2.64 8.66 5.28 9 8 C5.7 6.02 2.4 4.04 -1 2 C-0.67 1.34 -0.34 0.68 0 0 Z " fill="#272727" transform="translate(311,175)"/>
<path d="M0 0 C1.67542976 0.28604898 3.34385343 0.61781233 5 1 C5 2.65 5 4.3 5 6 C3.35 6.33 1.7 6.66 0 7 C-0.38133299 5.0085944 -0.71325582 3.00720923 -1 1 C-0.67 0.67 -0.34 0.34 0 0 Z " fill="#1D1D1D" transform="translate(259,364)"/>
<path d="M0 0 C1.65 0 3.3 0 5 0 C5.33 1.32 5.66 2.64 6 4 C4.68 4.33 3.36 4.66 2 5 C2.33 6.32 2.66 7.64 3 9 C2.01 9 1.02 9 0 9 C0 6.03 0 3.06 0 0 Z " fill="#B0B0B0" transform="translate(270,363)"/>
<path d="M0 0 C0.99 0 1.98 0 3 0 C3 2.64 3 5.28 3 8 C4.32 7.67 5.64 7.34 7 7 C7 7.66 7 8.32 7 9 C4.69 9 2.38 9 0 9 C0 6.03 0 3.06 0 0 Z " fill="#A4A4A4" transform="translate(247,363)"/>
<path d="M0 0 C1.98 0 3.96 0 6 0 C4.68 0.33 3.36 0.66 2 1 C2 1.99 2 2.98 2 4 C2.99 4.33 3.98 4.66 5 5 C4.01 5 3.02 5 2 5 C2 5.99 2 6.98 2 8 C3.65 7.67 5.3 7.34 7 7 C7 7.66 7 8.32 7 9 C4.69 9 2.38 9 0 9 C0 6.03 0 3.06 0 0 Z " fill="#BCBCBC" transform="translate(237,363)"/>
<path d="M0 0 C1.65 0 3.3 0 5 0 C4.01 0.33 3.02 0.66 2 1 C2 1.99 2 2.98 2 4 C2.99 3.67 3.98 3.34 5 3 C4.67 3.99 4.34 4.98 4 6 C3.34 5.67 2.68 5.34 2 5 C2 5.99 2 6.98 2 8 C3.32 7.67 4.64 7.34 6 7 C6 7.66 6 8.32 6 9 C4.02 9 2.04 9 0 9 C0 6.03 0 3.06 0 0 Z " fill="#CACACA" transform="translate(280,363)"/>
<path d="M0 0 C0.99 0 1.98 0 3 0 C3.66 0.99 4.32 1.98 5 3 C5.33 2.01 5.66 1.02 6 0 C6.99 0.33 7.98 0.66 9 1 C7.68 3.64 6.36 6.28 5 9 C2.67527795 6.14693203 1.2491742 3.45925163 0 0 Z " fill="#ABABAB" transform="translate(225,363)"/>
<path d="M0 0 C1.65 0 3.3 0 5 0 C4.01 0.33 3.02 0.66 2 1 C2 1.99 2 2.98 2 4 C2.99 3.67 3.98 3.34 5 3 C4.67 3.99 4.34 4.98 4 6 C3.34 5.67 2.68 5.34 2 5 C2 5.99 2 6.98 2 8 C3.32 7.67 4.64 7.34 6 7 C6 7.66 6 8.32 6 9 C4.02 9 2.04 9 0 9 C0 6.03 0 3.06 0 0 Z " fill="#CACACA" transform="translate(216,363)"/>
<path d="M0 0 C0.66 0.33 1.32 0.66 2 1 C2 1.66 2 2.32 2 3 C1.34 3 0.68 3 0 3 C0 3.66 0 4.32 0 5 C-2.87771795 6.91847864 -5.88626628 8.50079488 -9 10 C-9 7 -9 7 -7.625 5.3125 C-6 4 -6 4 -4 4 C-3.67 3.34 -3.34 2.68 -3 2 C-2.01 2 -1.02 2 0 2 C0 1.34 0 0.68 0 0 Z " fill="#949494" transform="translate(241,186)"/>
<path d="M0 0 C3 2 3 2 3.6875 4.625 C3.790625 5.40875 3.89375 6.1925 4 7 C2.02 7 0.04 7 -2 7 C-1.34 4.69 -0.68 2.38 0 0 Z " fill="#2B2B2B" transform="translate(215,319)"/>
<path d="M0 0 C0.99 1.32 1.98 2.64 3 4 C2.67 4.66 2.34 5.32 2 6 C1.690625 6.66 1.38125 7.32 1.0625 8 C0 10 0 10 -2 12 C-3.12377697 8.69564916 -2.89554742 6.9493138 -1.5625 3.75 C-1.27503906 3.04359375 -0.98757812 2.3371875 -0.69140625 1.609375 C-0.46324219 1.07828125 -0.23507813 0.5471875 0 0 Z " fill="#AEAEAE" transform="translate(214,314)"/>
<path d="M0 0 C3.04316701 1.34257368 4.89180832 3.51820901 7.125 5.9375 C3.88844816 5.9375 2.33747361 5.2824153 -0.5625 3.9375 C-1.37074219 3.56625 -2.17898438 3.195 -3.01171875 2.8125 C-3.62660156 2.52375 -4.24148437 2.235 -4.875 1.9375 C-1.875 -0.0625 -1.875 -0.0625 0 0 Z " fill="#373737" transform="translate(259.875,273.0625)"/>
<path d="M0 0 C1.65 0.33 3.3 0.66 5 1 C4.67 1.99 4.34 2.98 4 4 C0.4375 5.6875 0.4375 5.6875 -3 7 C-1.125 2.25 -1.125 2.25 0 0 Z " fill="#2D2D2D" transform="translate(186,158)"/>
<path d="M0 0 C1 2 1 2 0.0625 5.125 C-0.288125 6.07375 -0.63875 7.0225 -1 8 C-1.66 6.68 -2.32 5.36 -3 4 C-3.99 4 -4.98 4 -6 4 C-6 3.01 -6 2.02 -6 1 C-4.7934375 1.0309375 -4.7934375 1.0309375 -3.5625 1.0625 C-1.06645115 1.29633621 -1.06645115 1.29633621 0 0 Z " fill="#898989" transform="translate(257,186)"/>
<path d="M0 0 C1.875 0.125 1.875 0.125 4 1 C5.25 4.0625 5.25 4.0625 6 7 C3.36 6.01 0.72 5.02 -2 4 C-1.34 2.68 -0.68 1.36 0 0 Z " fill="#343434" transform="translate(309,158)"/>
<path d="M0 0 C1 2 1 2 0.0625 5.125 C-0.288125 6.07375 -0.63875 7.0225 -1 8 C-1.99 8 -2.98 8 -4 8 C-4 5.69 -4 3.38 -4 1 C-2.68 0.67 -1.36 0.34 0 0 Z " fill="#474747" transform="translate(243,363)"/>
<path d="M0 0 C2.89932357 2.39509338 3.50168276 4.31245243 4 8 C2.68 8 1.36 8 0 8 C-0.38063221 5.6739143 -0.71269945 3.33944736 -1 1 C-0.67 0.67 -0.34 0.34 0 0 Z " fill="#D3D3D3" transform="translate(216,310)"/>
<path d="M0 0 C0.86625 0.268125 1.7325 0.53625 2.625 0.8125 C0.24042052 2.40221965 -2.0054124 3.67991593 -4.5625 4.9375 C-5.27792969 5.29070312 -5.99335938 5.64390625 -6.73046875 6.0078125 C-7.27316406 6.27335937 -7.81585938 6.53890625 -8.375 6.8125 C-8.705 6.1525 -9.035 5.4925 -9.375 4.8125 C-4.20576923 -0.23365385 -4.20576923 -0.23365385 0 0 Z " fill="#303030" transform="translate(240.375,273.1875)"/>
<path d="M0 0 C1.2065625 0.0309375 1.2065625 0.0309375 2.4375 0.0625 C2.4375 1.0525 2.4375 2.0425 2.4375 3.0625 C0.7875 3.0625 -0.8625 3.0625 -2.5625 3.0625 C-2.5625 3.7225 -2.5625 4.3825 -2.5625 5.0625 C-3.5525 5.0625 -4.5425 5.0625 -5.5625 5.0625 C-3.15007962 0.07683121 -3.15007962 0.07683121 0 0 Z " fill="#262626" transform="translate(240.5625,190.9375)"/>
<path d="M0 0 C1.98 0.99 1.98 0.99 4 2 C3.6875 3.9375 3.6875 3.9375 3 6 C2.01 6.33 1.02 6.66 0 7 C0 4.69 0 2.38 0 0 Z " fill="#181818" transform="translate(206,364)"/>
<path d="M0 0 C0.99 1.32 1.98 2.64 3 4 C-0.3 4 -3.6 4 -7 4 C-7 3.34 -7 2.68 -7 2 C-3.86650268 0.95550089 -3.01031744 1.06576355 0 2 C0 1.34 0 0.68 0 0 Z " fill="#757575" transform="translate(246,207)"/>
<path d="M0 0 C3 1 3 1 4 3 C3.01 3 2.02 3 1 3 C0.67 3.99 0.34 4.98 0 6 C-0.66 6.66 -1.32 7.32 -2 8 C-3 5 -3 5 -2 2 C-1.34 2 -0.68 2 0 2 C0 1.34 0 0.68 0 0 Z " fill="#7A7A7A" transform="translate(244,178)"/>
<path d="M0 0 C0.33 0 0.66 0 1 0 C1.33 1.98 1.66 3.96 2 6 C0.02 6 -1.96 6 -4 6 C-2.69593116 3.98079663 -1.36176581 1.98075027 0 0 Z " fill="#CDCDCD" transform="translate(207,336)"/>
<path d="M0 0 C0 1.65 0 3.3 0 5 C-0.66 5 -1.32 5 -2 5 C-2.33 4.34 -2.66 3.68 -3 3 C-6.02934491 2.34227572 -6.02934491 2.34227572 -9 2 C-9 1.67 -9 1.34 -9 1 C-2.25 0 -2.25 0 0 0 Z " fill="#CBCBCB" transform="translate(282,310)"/>
<path d="M0 0 C1.65 0 3.3 0 5 0 C5 1.32 5 2.64 5 4 C3.35 4 1.7 4 0 4 C0 2.68 0 1.36 0 0 Z " fill="#B3B3B3" transform="translate(262,200)"/>
<path d="M0 0 C1.65 0 3.3 0 5 0 C5 1.32 5 2.64 5 4 C3.35 4 1.7 4 0 4 C0 2.68 0 1.36 0 0 Z " fill="#B2B2B2" transform="translate(262,195)"/>
<path d="M0 0 C0.99 0 1.98 0 3 0 C3 0.66 3 1.32 3 2 C3.66 2.33 4.32 2.66 5 3 C3.35 4.32 1.7 5.64 0 7 C0 4.66666667 0 2.33333333 0 0 Z " fill="#979797" transform="translate(245,181)"/>
<path d="M0 0 C1.98 0 3.96 0 6 0 C5.34 1.32 4.68 2.64 4 4 C2.68 3.67 1.36 3.34 0 3 C0 2.01 0 1.02 0 0 Z " fill="#2C2C2C" transform="translate(232,188)"/>
<path d="M0 0 C1.65 0.33 3.3 0.66 5 1 C3.35 2.98 1.7 4.96 0 7 C-0.66 6.67 -1.32 6.34 -2 6 C-1.01 5.01 -0.02 4.02 1 3 C0.67 2.01 0.34 1.02 0 0 Z " fill="#525252" transform="translate(248,181)"/>
<path d="M0 0 C0.33 0.66 0.66 1.32 1 2 C-0.98 2.99 -0.98 2.99 -3 4 C-4.32 3.01 -5.64 2.02 -7 1 C-4.53721199 -0.231394 -2.7204945 -0.07159196 0 0 Z " fill="#1F1F1F" transform="translate(252,178)"/>
</svg>
